<?xml version="1.0" encoding="UTF-8" standalone="no"?> <!-- Created with Vectornator for iOS (http://vectornator.io/) --><!DOCTYPE svg PUBLIC "-//W3C//DTD SVG 1.1//EN" "http://www.w3.org/Graphics/SVG/1.1/DTD/svg11.dtd">
<svg style="fill-rule:evenodd;clip-rule:evenodd;stroke-linecap:round;stroke-linejoin:round;" xmlns:vectornator="http://vectornator.io" xmlns:xlink="http://www.w3.org/1999/xlink" xmlns="http://www.w3.org/2000/svg" xml:space="preserve" version="1.1" viewBox="0 0 1024 1024">
<metadata>
<vectornator:setting key="DisplayWhiteBackground" value="0"/>
<vectornator:setting key="RulersVisible" value="1"/>
<vectornator:setting key="SnapToEdges" value="0"/>
<vectornator:setting key="Units" value="Pixels"/>
<vectornator:setting key="New" value="1"/>
<vectornator:setting key="DynamicGuides" value="0"/>
<vectornator:setting key="SnapToPoints" value="0"/>
<vectornator:setting key="SnapToGrid" value="0"/>
<vectornator:setting key="SnapToGuides" value="1"/>
<vectornator:setting key="GridSpacing" value="36"/>
</metadata>
<defs>
<linearGradient y1="822.115" id="LinearGradient" x1="-34.1415" y2="483.921" x2="850.709" gradientUnits="userSpaceOnUse" gradientTransform="matrix(1.51878 0 0 1.51878 -274.043 -221.472)">
<stop stop-color="#00ff4b" offset="0"/>
<stop stop-color="#00aeff" offset="1"/>
</linearGradient>
</defs>
<g id="Layer 1" vectornator:layerName="Layer 1">
<path stroke="#f4f4f4" stroke-width="15.79" d="M513.5+9L513.5+9C792.128+9+1018+234.872+1018+513.5L1018+513.5C1018+792.128+792.128+1018+513.5+1018L513.5+1018C234.872+1018+9+792.128+9+513.5L9+513.5C9+234.872+234.872+9+513.5+9Z" fill="url(#LinearGradient)" stroke-linecap="round" opacity="1" stroke-linejoin="round"/>
<path stroke="#ffffff" stroke-opacity="0" stroke-width="5" d="M832+214L711.687+214L532.261+393.507L496.488+357.734L581.549+272.632L553.195+244.279C521.914+213.037+471.021+213.078+439.78+244.279L255.461+428.598C224.18+459.879+224.18+510.772+255.461+542.053L425.623+712.215L340.522+797.277L368.916+825.63C384.557+841.271+405.09+849.051+425.623+849.051C446.157+849.051+466.69+841.271+482.331+825.63L666.69+641.271C697.931+610.03+697.931+559.137+666.69+527.856L652.654+513.82L832+334.433L832+214ZM468.134+272.632C483.735+256.992+509.201+256.992+524.841+272.632L368.876+428.598C358.489+418.251+345.856+411.634+332.622+408.145L468.134+272.632ZM453.937+797.277C438.296+812.877+412.87+812.877+397.23+797.277L453.937+740.569C461.517+748.109+465.647+758.175+465.647+768.923C465.688+779.631+461.517+789.737+453.937+797.277ZM638.296+612.917L502.824+748.389C499.255+734.834+492.477+722.362+482.331+712.215L283.815+513.699C268.174+498.059+268.174+472.632+283.815+456.952C299.415+441.351+324.882+441.271+340.522+456.952L368.876+485.346L468.134+386.087L503.907+421.86L471.062+454.746L471.062+550.314L430.957+615.163L495.605+575.179L591.374+575.059L624.26+542.173L638.296+556.21C653.937+571.85+653.937+597.317+638.296+612.917ZM791.896+317.83L574.731+534.954L535.79+535.035L741.765+304.355L511.166+510.25L511.166+471.349L728.29+254.104L791.896+254.104L791.896+317.83Z" fill="#ffffff" stroke-linecap="butt" opacity="1" stroke-linejoin="round"/>
<path stroke="#ffffff" stroke-opacity="0" stroke-width="4" d="M529.022+687.972C527.957+689.059+526.214+689.076+525.128+688.012L465.602+629.687C464.515+628.623+464.498+626.88+465.562+625.794C466.626+624.708+468.369+624.69+469.455+625.754L528.982+684.079C530.068+685.143+530.086+686.886+529.022+687.972Z" fill="#ffffff" stroke-linecap="butt" opacity="1" stroke-linejoin="round"/>
<path stroke="#ffffff" stroke-opacity="0" stroke-width="4" d="M496.672+656.218C496.162+656.744+495.465+657.045+494.733+657.055L450.621+657.466C449.155+657.406+447.993+656.206+447.98+654.739C447.968+653.271+449.11+652.051+450.575+651.967L494.677+651.546C495.408+651.538+496.112+651.821+496.634+652.333C497.155+652.844+497.453+653.542+497.46+654.273C497.464+655+497.181+655.699+496.672+656.218Z" fill="#ffffff" stroke-linecap="butt" opacity="1" stroke-linejoin="round"/>
<path stroke="#ffffff" stroke-opacity="0" stroke-width="4" d="M510.428+669.715C509.919+670.235+509.226+670.533+508.499+670.543C507.768+670.551+507.064+670.268+506.543+669.757C506.021+669.245+505.723+668.547+505.716+667.817L505.322+631.025C505.26+630.011+505.761+629.045+506.626+628.512C507.491+627.979+508.579+627.966+509.457+628.478C510.334+628.99+510.859+629.944+510.821+630.959L511.216+667.751C511.225+668.485+510.942+669.192+510.428+669.715Z" fill="#ffffff" stroke-linecap="butt" opacity="1" stroke-linejoin="round"/>
<path stroke="#ffffff" stroke-opacity="0" stroke-width="4" d="M515.209+630.71C512.362+633.631+508.034+634.548+504.247+633.032C500.46+631.516+497.96+627.866+497.916+623.787C497.871+619.708+500.291+616.004+504.044+614.406C507.797+612.808+512.144+613.631+515.054+616.489C519.012+620.378+519.081+626.736+515.209+630.71ZM504.747+620.459C502.968+622.253+502.982+625.149+504.777+626.926C506.572+628.702+509.468+628.686+511.243+626.889C513.018+625.092+512.999+622.196+511.2+620.422C509.406+618.654+506.52+618.671+504.747+620.459Z" fill="#ffffff" stroke-linecap="butt" opacity="1" stroke-linejoin="round"/>
<path stroke="#ffffff" stroke-opacity="0" stroke-width="4" d="M469.447+629.697C465.548+633.665+459.17+633.723+455.2+629.826C451.23+625.929+451.169+619.551+455.065+615.579C458.96+611.607+465.337+611.544+469.311+615.437C473.282+619.339+473.343+625.72+469.447+629.697ZM458.985+619.446C457.225+621.253+457.262+624.144+459.067+625.906C460.872+627.667+463.763+627.633+465.526+625.83C467.29+624.027+467.259+621.136+465.457+619.37C464.59+618.52+463.42+618.051+462.205+618.065C460.991+618.079+459.832+618.576+458.985+619.446Z" fill="#ffffff" stroke-linecap="butt" opacity="1" stroke-linejoin="round"/>
</g>
</svg>
